<svg clip-rule="evenodd" fill-rule="evenodd" stroke-linejoin="round" stroke-miterlimit="2" viewBox="0 0 100 100" xmlns="http://www.w3.org/2000/svg"><path d="m.000192.00006h99.999936v99.999936h-99.999936z" fill="none" stroke-width=".719424"/><g fill-rule="nonzero" transform="matrix(1.02880509696 0 0 1.02880509696 1.00019136 .00006)"><path d="m0 76.1 36.6 21.1v-20l-36.6-21.1z" fill="#0d51ff"/><path d="m54.9 65.6-36.6-21.2-17.3 10.1 36.5 21.1z" fill="#0d51ff"/><path d="m55.8 63.9v-20l-10-5.8-26.6-15.3v20l29.8 17.2z" fill="#0d51ff"/><path d="m93.4 21.1-36.6-21.1-36.6 21.1 36.6 21.1z" fill="#0d51ff"/><path d="m57.7 43.9v21.9c0 .1-.1.2-.1.3-.1.1-.2.2-.3.3l-18.8 10.8v20l36.6-21.1v-21.6c0-.3.2-.7.5-.8l18.8-10.8v-20z" fill="#0d51ff"/><path d="m77 56.1v18.9l16.4-9.4z" fill="#000000" fill-opacity="0.05"/></g></svg>